<svg width="56" height="16" viewBox="0 0 56 16" fill="none" xmlns="http://www.w3.org/2000/svg">
<g clip-path="url(#clip0_17_45)">
<rect width="56" height="16" fill="white"/>
<path d="M9.2239 1.57991C9.0284 1.26797 8.77347 0.996307 8.47318 0.77991C8.1699 0.575506 7.8376 0.416451 7.48709 0.30791C7.10626 0.185095 6.71305 0.103285 6.31434 0.0639105C5.84773 0.019077 5.3791 -0.00228409 4.91028 -8.9495e-05H0.852311C0.758246 -0.00884765 0.663355 0.0010923 0.573258 0.0291415C0.483162 0.0571908 0.399693 0.102779 0.327795 0.163205C0.255898 0.223631 0.197035 0.297666 0.154694 0.380924C0.112353 0.464183 0.0873941 0.554971 0.0812967 0.64791C0.0812967 0.64791 0.0812967 0.67191 0.0812967 0.68391V7.17991C0.643903 8.3699 1.57819 9.35111 2.74738 9.97991V8.67591C2.73848 8.5753 2.74979 8.47394 2.78068 8.37764C2.81156 8.28134 2.86141 8.19199 2.92738 8.11471C2.99334 8.03743 3.07412 7.97373 3.16509 7.92726C3.25606 7.8808 3.35544 7.85247 3.45753 7.84391H4.67492C6.33598 7.84391 7.60342 7.50124 8.47724 6.81591C9.35105 6.13058 9.79473 5.11458 9.80825 3.76791C9.80968 3.37982 9.76335 2.993 9.67028 2.61591C9.57752 2.24964 9.42688 1.90004 9.2239 1.57991ZM6.84593 4.91991C6.70441 5.15995 6.49405 5.35339 6.2413 5.47591C5.96743 5.60485 5.67153 5.68217 5.36883 5.70391C5.03634 5.74472 4.70157 5.76476 4.36651 5.76391H3.19782C2.91782 5.76391 2.74333 5.53991 2.74333 5.21191V2.53191C2.73929 2.47311 2.74849 2.41415 2.77026 2.35926C2.79203 2.30437 2.82583 2.2549 2.86926 2.21439C2.91268 2.17388 2.96465 2.14333 3.02145 2.12492C3.07825 2.10651 3.13848 2.1007 3.19782 2.10791H4.36651C4.74526 2.10791 5.10236 2.11858 5.43782 2.13991C5.73679 2.15405 6.03022 2.22467 6.30217 2.34791C6.55238 2.45772 6.76111 2.64247 6.89869 2.87591C7.05405 3.18892 7.1253 3.53599 7.10564 3.88391C7.11353 4.24453 7.02389 4.60073 6.84593 4.91591V4.91991ZM2.75144 10.3719C1.75073 10.016 0.839881 9.45113 0.0812967 8.71591V11.8559C0.0727987 11.9157 0.0766582 11.9766 0.0926431 12.0349C0.108628 12.0932 0.136408 12.1477 0.174314 12.1952C0.21222 12.2426 0.259468 12.2821 0.313219 12.311C0.36697 12.34 0.426113 12.358 0.487094 12.3639H2.3213C2.80825 12.3639 2.75144 11.8519 2.75144 11.8519V10.3719ZM27.9596 3.41991H26.3769C26.2259 3.41017 26.0762 3.45342 25.9544 3.542C25.8326 3.63058 25.7466 3.75878 25.7114 3.90391L23.8732 8.89591C23.8732 8.89591 22.25 4.34791 22.1283 3.99591C22.0941 3.83349 22.0046 3.68746 21.8747 3.58198C21.7449 3.47651 21.5823 3.41792 21.4141 3.41591H19.9572C19.4378 3.41591 19.4378 3.81591 19.5068 3.97191C19.5758 4.12791 21.5683 9.51191 22.3474 11.5719C22.4701 11.8255 22.5561 12.0948 22.603 12.3719C22.5525 12.6454 22.4477 12.9064 22.2946 13.1399C22.2354 13.2389 22.1675 13.3326 22.0917 13.4199C23.5932 12.9799 25.3381 11.3759 26.2146 9.64391C27.0993 7.24391 28.2639 4.04391 28.3167 3.87991C28.3735 3.62791 28.3735 3.41991 27.9596 3.41991ZM20.9068 13.9079C20.7711 13.9043 20.6356 13.8936 20.501 13.8759C20.3346 13.8519 20.0181 13.8759 20.0181 14.1559V15.3559C20.0181 15.8159 20.2454 15.8479 20.363 15.8799C20.7389 15.9612 21.1226 16.0014 21.5074 15.9999C21.9621 16.0117 22.4134 15.92 22.8262 15.7319C23.2039 15.5438 23.5393 15.2826 23.8123 14.9639C24.1219 14.615 24.3838 14.2277 24.5914 13.8119C24.816 13.3692 25.0297 12.8799 25.2326 12.3439L25.468 11.7079C24.9972 12.1679 22.9196 14.0999 20.9068 13.9079ZM18.5126 4.85591C18.4264 4.65378 18.3086 4.46619 18.1636 4.29991C18.017 4.14588 17.8505 4.01141 17.6685 3.89991C17.4719 3.76794 17.2626 3.6554 17.0436 3.56391C16.8206 3.47873 16.5914 3.41054 16.3578 3.35991C16.0905 3.30163 15.8193 3.26286 15.5462 3.24391C15.2541 3.21458 14.9267 3.19991 14.5642 3.19991C12.1456 3.19991 10.7686 3.95191 10.4332 5.45591C10.4189 5.51197 10.4171 5.57042 10.4279 5.62723C10.4387 5.68405 10.4618 5.73788 10.4958 5.78502C10.5297 5.83216 10.5736 5.87149 10.6245 5.9003C10.6753 5.92911 10.7319 5.94672 10.7903 5.95191H12.2796C12.6854 5.95191 12.6854 5.82791 12.8396 5.48391C12.9071 5.29663 13.0284 5.13268 13.1885 5.01191C13.5691 4.7698 14.0191 4.65609 14.4709 4.68791C14.8922 4.64547 15.3154 4.74869 15.668 4.97991C15.9369 5.22739 16.0959 5.56952 16.1103 5.93191C16.1103 6.42791 15.9561 6.75591 15.3312 6.75591C13.85 6.70391 12.2593 6.86791 11.3625 7.37591C10.921 7.64154 10.5586 8.0175 10.312 8.46566C10.0655 8.91383 9.94346 9.41829 9.9584 9.92791C9.94819 10.3249 10.0301 10.7189 10.1978 11.0799C10.3558 11.3937 10.5849 11.6674 10.8674 11.8799C11.1639 12.1183 11.5062 12.2952 11.8738 12.3999C12.289 12.5107 12.7178 12.5646 13.148 12.5599C13.7267 12.5688 14.3032 12.4878 14.8564 12.3199C15.3453 12.1225 15.8074 11.8658 16.232 11.5559V11.8359C16.232 12.1119 16.3172 12.3599 16.6378 12.3599H18.3625C18.7114 12.3599 18.7926 12.1159 18.7926 11.8119V6.57591C18.7947 6.24933 18.7716 5.92306 18.7236 5.59991C18.6853 5.34415 18.6144 5.09417 18.5126 4.85591ZM16.1549 9.99991C16.1549 9.99991 15.7085 10.9199 14.1259 10.9199C13.7464 10.9371 13.3712 10.8349 13.0546 10.6279C12.9153 10.5212 12.8052 10.3819 12.7343 10.2227C12.6634 10.0634 12.6341 9.88921 12.6488 9.71591C12.6314 9.48317 12.6861 9.25069 12.8056 9.04926C12.9252 8.84783 13.104 8.68695 13.3184 8.58791C13.9586 8.34547 14.6417 8.23256 15.3271 8.25591C15.432 8.24031 15.539 8.24729 15.6409 8.27637C15.7428 8.30544 15.8371 8.35592 15.9173 8.42434C15.9975 8.49276 16.0617 8.57749 16.1056 8.6727C16.1494 8.76792 16.1718 8.87136 16.1712 8.97591L16.1549 9.99991Z" fill="#333333"/>
<path d="M55.5943 6.63196C55.7942 6.94893 55.9002 7.31472 55.9002 7.68796C55.9002 8.0612 55.7942 8.42699 55.5943 8.74396C55.1885 9.35196 52.9769 11.68 52.2465 12.428C51.6135 13.076 50.7572 13.732 49.9091 13.732H32.3421C29.9642 13.732 29.8221 12.932 29.8221 11.148V3.87196C29.8221 2.04396 30.37 1.51196 31.9972 1.51196H49.9497C50.7897 1.51196 51.5404 1.93596 52.3845 2.79196C53.123 3.52396 55.3021 6.19996 55.5943 6.63196Z" fill="#33CCCC"/>
<path d="M33.811 4.32392V4.27992C33.811 4.04392 33.811 3.81592 33.4052 3.81592H31.9322C31.5873 3.81592 31.571 3.99992 31.571 4.28792V6.20792C32.1521 5.41055 32.9208 4.76405 33.811 4.32392Z" fill="white"/>
<path d="M43.6762 11.268V11.164V6.53202C43.6762 4.59336 42.8078 3.62402 41.071 3.62402C40.5876 3.62967 40.1154 3.7682 39.7075 4.02402C39.2581 4.30035 38.8566 4.64609 38.5185 5.04802C38.3655 4.6136 38.0681 4.24289 37.6745 3.99602C37.2269 3.75284 36.7202 3.63525 36.2095 3.65602C35.4585 3.65881 34.7294 3.90633 34.1359 4.36002C34.0061 4.48802 31.5672 6.36002 31.5672 8.31202V11.276C31.5672 11.368 31.5185 11.728 31.9284 11.728H33.4582C33.933 11.728 33.8884 11.42 33.8884 11.292V6.49202C34.144 6.15202 34.6675 5.34002 35.5319 5.34002C35.6701 5.32762 35.8092 5.35186 35.9348 5.41023C36.0604 5.4686 36.1678 5.55898 36.2461 5.67202C36.4196 6.01353 36.4954 6.39523 36.4652 6.77602V10.516V11.284C36.4652 11.376 36.4165 11.736 36.8264 11.736H38.34C38.8148 11.736 38.7701 11.428 38.7701 11.3V11.196V6.47602C39.0461 6.13602 39.5817 5.32402 40.4136 5.32402C40.5535 5.31274 40.6939 5.3374 40.8212 5.39558C40.9485 5.45377 41.0584 5.54351 41.14 5.65602C41.3163 5.99667 41.3936 6.37877 41.3632 6.76002V10.5V11.268C41.3632 11.36 41.3145 11.72 41.7243 11.72H43.2542C43.733 11.696 43.6762 11.392 43.6762 11.268Z" fill="white"/>
<path d="M52.1126 9.38401C51.8527 10.073 51.3763 10.6623 50.753 11.0659C50.1297 11.4695 49.3919 11.6664 48.6471 11.628C46.3097 11.628 44.7515 10.06 44.7515 7.70801C44.7515 5.35601 46.3747 3.70801 48.566 3.70801C50.7573 3.70801 52.2181 5.20401 52.3115 7.61601C52.3115 7.92401 52.2344 8.19601 51.8407 8.19601H46.8819C46.9144 9.48801 47.5433 10.196 48.6634 10.196C48.9607 10.2034 49.254 10.1267 49.5085 9.97497C49.7631 9.82329 49.9683 9.60296 50.0999 9.34001C50.1517 9.2656 50.2215 9.20507 50.3029 9.16387C50.3844 9.12267 50.475 9.1021 50.5665 9.10401H51.8448C51.8832 9.10222 51.9214 9.10897 51.9568 9.12375C51.9921 9.13854 52.0236 9.16098 52.049 9.18942C52.0743 9.21786 52.0928 9.25155 52.1031 9.28801C52.1135 9.32447 52.1153 9.36275 52.1086 9.40001L52.1126 9.38401ZM48.5741 5.20001C47.6448 5.20001 47.0158 5.83601 46.8778 6.88401H50.2054C50.1202 5.96801 49.617 5.20001 48.5741 5.20001Z" fill="white"/>
</g>
<defs>
<clipPath id="clip0_17_45">
<rect width="56" height="16" fill="white"/>
</clipPath>
</defs>
</svg>
